<svg width="300" height="61" viewBox="0 0 300 61" fill="none" xmlns="http://www.w3.org/2000/svg">
<path d="M34.4 39L34.36 11H30.08L19.16 29.56L8.04 11H3.76V39H8.72V20.68L17.92 35.8H20.24L29.44 20.44L29.48 39H34.4ZM61.4831 39H67.5631L55.0831 23.52L66.8431 11H61.0031L47.1631 25.36V11H41.9631V39H47.1631V31.84L51.6031 27.28L61.4831 39ZM79.1978 39.4C86.8778 39.4 90.5178 35.56 90.5178 31.08C90.5178 20.8 73.9178 24.68 73.9178 18.72C73.9178 16.6 75.6778 14.92 79.9978 14.92C82.4378 14.92 85.1978 15.64 87.7178 17.12L89.3578 13.08C86.9178 11.48 83.3978 10.6 80.0378 10.6C72.3578 10.6 68.7578 14.44 68.7578 18.96C68.7578 29.36 85.3978 25.4 85.3978 31.44C85.3978 33.52 83.5578 35.08 79.1978 35.08C75.7578 35.08 72.1978 33.8 69.9578 32L68.1578 36.04C70.4778 38.04 74.8378 39.4 79.1978 39.4Z" fill="white"/>
<path d="M106.12 36.1C109.58 36.1 111.16 34.38 111.16 32.4C111.16 27.32 102.42 29.8 102.42 25.6C102.42 24.06 103.64 22.8 106.36 22.8C107.62 22.8 109.04 23.18 110.2 23.98L110.58 23.16C109.5 22.38 107.9 21.9 106.36 21.9C102.92 21.9 101.4 23.64 101.4 25.62C101.4 30.78 110.14 28.26 110.14 32.46C110.14 33.98 108.9 35.2 106.1 35.2C104.22 35.2 102.44 34.44 101.48 33.44L101.02 34.2C102.04 35.32 104.04 36.1 106.12 36.1ZM114.808 23.02C115.268 23.02 115.628 22.66 115.628 22.2C115.628 21.76 115.268 21.4 114.808 21.4C114.348 21.4 113.988 21.78 113.988 22.22C113.988 22.66 114.348 23.02 114.808 23.02ZM114.308 36H115.308V25.56H114.308V36ZM122.162 36.08C124.822 36.08 126.282 34.92 126.282 33.22C126.282 29.24 119.362 31.46 119.362 28.32C119.362 27.2 120.262 26.36 122.302 26.36C123.422 26.36 124.562 26.66 125.442 27.3L125.902 26.5C125.082 25.88 123.642 25.48 122.322 25.48C119.682 25.48 118.362 26.76 118.362 28.34C118.362 32.44 125.282 30.2 125.282 33.24C125.282 34.42 124.402 35.2 122.202 35.2C120.662 35.2 119.242 34.62 118.442 33.94L117.982 34.74C118.802 35.5 120.442 36.08 122.162 36.08ZM133.833 34.64C133.413 35.02 132.833 35.22 132.213 35.22C130.933 35.22 130.273 34.48 130.273 33.14V26.42H133.593V25.56H130.273V23.28H129.273V25.56H127.353V26.42H129.273V33.24C129.273 35 130.273 36.08 132.113 36.08C132.893 36.08 133.733 35.84 134.253 35.34L133.833 34.64ZM145.511 30.74C145.511 27.64 143.391 25.48 140.531 25.48C137.671 25.48 135.531 27.68 135.531 30.78C135.531 33.88 137.751 36.08 140.911 36.08C142.491 36.08 143.931 35.5 144.851 34.38L144.271 33.72C143.471 34.7 142.251 35.18 140.931 35.18C138.431 35.18 136.611 33.5 136.511 31.02H145.491C145.491 30.92 145.511 30.82 145.511 30.74ZM140.531 26.36C142.751 26.36 144.391 27.98 144.531 30.24H136.531C136.691 27.96 138.311 26.36 140.531 26.36ZM161.604 25.48C159.584 25.48 158.064 26.48 157.384 28C156.824 26.34 155.444 25.48 153.564 25.48C151.664 25.48 150.244 26.34 149.564 27.8V25.56H148.604V36H149.604V30.44C149.604 27.96 151.064 26.38 153.424 26.38C155.464 26.38 156.684 27.62 156.684 29.98V36H157.684V30.44C157.684 27.96 159.144 26.38 161.504 26.38C163.544 26.38 164.764 27.62 164.764 29.98V36H165.764V29.9C165.764 26.98 164.124 25.48 161.604 25.48ZM173.413 25.48C171.793 25.48 170.273 26.04 169.233 26.96L169.733 27.68C170.593 26.9 171.893 26.36 173.333 26.36C175.373 26.36 176.433 27.4 176.433 29.34V30.18H172.853C169.953 30.18 168.953 31.52 168.953 33.1C168.953 34.88 170.373 36.08 172.713 36.08C174.533 36.08 175.813 35.34 176.473 34.14V36H177.433V29.38C177.433 26.8 175.993 25.48 173.413 25.48ZM172.853 35.26C171.013 35.26 169.953 34.42 169.953 33.06C169.953 31.86 170.713 30.96 172.873 30.96H176.433V32.92C175.833 34.42 174.613 35.26 172.853 35.26ZM184.194 36.08C186.854 36.08 188.314 34.92 188.314 33.22C188.314 29.24 181.394 31.46 181.394 28.32C181.394 27.2 182.294 26.36 184.334 26.36C185.454 26.36 186.594 26.66 187.474 27.3L187.934 26.5C187.114 25.88 185.674 25.48 184.354 25.48C181.714 25.48 180.394 26.76 180.394 28.34C180.394 32.44 187.314 30.2 187.314 33.24C187.314 34.42 186.434 35.2 184.234 35.2C182.694 35.2 181.274 34.62 180.474 33.94L180.014 34.74C180.834 35.5 182.474 36.08 184.194 36.08Z" fill="white"/>
</svg>
